<?xml version="1.0" standalone="no"?>
<!DOCTYPE svg PUBLIC "-//W3C//DTD SVG 20010904//EN"
 "http://www.w3.org/TR/2001/REC-SVG-20010904/DTD/svg10.dtd">
<svg version="1.0" xmlns="http://www.w3.org/2000/svg"
 width="5000.000000pt" height="3333.000000pt" viewBox="0 0 5000.000000 3333.000000"
 preserveAspectRatio="xMidYMid meet">

<g transform="translate(0.000000,3333.000000) scale(0.100000,-0.100000)"
fill="#ffea70" stroke="none">
<path d="M30145 21900 c-1128 -30 -1481 -32 -2802 -21 -1493 13 -2183 6 -3018
-31 -693 -30 -1500 -30 -2210 0 -888 38 -1614 45 -4405 38 -4155 -9 -5621 -30
-7180 -101 -173 -8 -484 -19 -690 -25 -907 -25 -1074 -38 -1791 -140 -229 -33
-492 -69 -586 -80 -194 -23 -250 -37 -316 -81 -59 -39 -97 -84 -142 -171 -49
-93 -83 -116 -181 -128 -98 -11 -180 -35 -188 -55 -3 -8 -3 -37 1 -64 5 -44 3
-50 -18 -64 -16 -10 -134 -26 -369 -51 -190 -20 -383 -41 -429 -46 -151 -17
-241 -76 -338 -221 -58 -88 -102 -124 -168 -139 -185 -43 -215 -57 -215 -98 0
-39 78 -195 129 -260 51 -64 120 -116 183 -137 35 -12 71 -41 155 -125 61 -60
115 -122 122 -138 14 -35 48 -52 99 -52 69 0 139 -62 106 -94 -8 -9 -20 -16
-24 -16 -17 0 -42 -49 -35 -69 5 -15 28 -28 91 -47 76 -24 89 -25 129 -14 24
7 52 10 61 6 17 -6 17 -5 -2 -108 -4 -25 0 -41 20 -68 14 -19 44 -66 67 -104
68 -109 131 -171 215 -212 70 -34 78 -41 171 -162 114 -149 154 -189 204 -202
31 -9 39 -17 54 -56 10 -26 37 -75 61 -110 l44 -64 0 -124 c0 -136 -7 -156
-56 -156 -35 0 -662 146 -759 177 -74 23 -89 24 -205 18 -138 -7 -269 5 -400
36 -46 11 -97 17 -112 14 -15 -4 -74 -37 -133 -75 -64 -41 -125 -73 -156 -80
-59 -14 -79 -40 -98 -126 -15 -66 -8 -79 48 -89 106 -18 126 -68 75 -184 -36
-80 -30 -99 33 -123 62 -23 82 -47 116 -147 16 -44 39 -87 57 -106 l31 -32 -3
-114 -3 -114 -30 2 c-43 4 -88 -13 -137 -52 -24 -19 -49 -35 -56 -35 -7 0 -34
-15 -60 -32 -25 -18 -69 -44 -96 -58 -56 -27 -80 -64 -92 -136 l-6 -42 48 -16
c78 -26 111 -51 133 -100 11 -25 40 -74 64 -108 50 -70 53 -100 13 -137 -29
-27 -181 -41 -451 -41 -209 0 -270 -10 -359 -58 -29 -15 -56 -39 -64 -54 -13
-28 -21 -32 -84 -43 -39 -6 -68 -35 -68 -68 0 -10 -9 -26 -20 -35 -27 -23 -37
-100 -17 -127 12 -16 27 -20 68 -20 49 0 55 -3 75 -33 13 -18 28 -58 34 -87 9
-44 17 -58 41 -72 17 -10 39 -31 49 -48 17 -28 17 -33 2 -92 -21 -81 -8 -151
47 -242 63 -105 75 -182 46 -291 -28 -106 -14 -146 74 -214 49 -37 51 -40 51
-87 0 -92 36 -148 107 -163 17 -4 45 -20 62 -37 35 -33 45 -35 84 -14 18 9 98
21 209 30 144 13 198 14 274 5 67 -8 115 -8 167 -1 99 14 301 29 492 36 260 9
780 44 924 61 145 17 169 15 280 -23 56 -18 104 -26 190 -31 95 -4 124 -10
164 -29 42 -21 48 -28 45 -51 -2 -22 -15 -33 -63 -57 -49 -25 -75 -49 -147
-135 -48 -58 -100 -115 -115 -128 -46 -38 -120 -72 -171 -79 -49 -6 -95 -25
-124 -51 -28 -24 -21 -70 24 -162 57 -115 173 -233 309 -312 97 -57 171 -126
193 -178 16 -39 50 -64 116 -85 83 -26 91 -38 52 -78 -18 -18 -32 -40 -32 -49
0 -9 21 -58 46 -109 58 -114 155 -217 254 -269 79 -40 226 -172 270 -240 30
-47 68 -70 117 -70 7 0 38 -12 68 -27 75 -37 83 -64 30 -110 -22 -19 -35 -38
-32 -46 9 -24 142 -67 206 -67 56 0 142 -28 156 -50 3 -5 -2 -36 -11 -69 -16
-55 -16 -62 -1 -84 9 -14 28 -27 42 -31 14 -4 121 5 238 18 667 80 1163 94
2687 78 715 -8 913 -12 944 -23 56 -19 111 -75 127 -129 14 -47 36 -72 56 -65
18 6 122 -32 165 -60 30 -20 78 -87 78 -109 0 -2 -18 -7 -39 -11 -81 -14 -7
-64 145 -100 62 -14 119 -32 129 -39 16 -12 16 -15 -1 -64 l-19 -52 25 -25
c31 -30 105 -47 300 -69 316 -35 636 -51 1425 -67 595 -13 1113 -7 2270 26
281 8 731 19 1000 25 719 15 2258 65 2925 95 63 3 295 12 515 20 731 27 1363
57 1820 85 490 30 1330 66 2310 100 798 27 992 38 2755 145 1783 109 2248 135
2378 135 76 0 174 4 218 10 78 10 780 36 1764 65 465 14 843 27 1145 40 66 3
228 10 360 15 132 6 476 22 765 35 1134 53 1759 77 3490 135 1926 64 2299 83
2489 126 99 22 139 45 229 127 90 83 141 108 271 133 41 8 89 22 105 32 37 22
72 80 86 145 7 34 19 56 40 74 93 78 117 170 67 255 -31 53 -53 65 -202 108
-153 45 -200 67 -246 117 -43 47 -119 193 -119 229 0 12 6 24 14 27 7 3 98 -1
202 -9 575 -43 1073 -37 1689 22 259 25 317 44 363 122 25 44 27 54 27 162 -1
188 -13 268 -48 318 -29 43 -67 137 -67 167 0 9 -6 18 -14 21 -9 4 -16 33 -21
97 -7 102 -28 160 -75 213 -16 19 -30 41 -30 48 0 8 16 33 36 57 30 36 35 49
31 76 -8 49 -61 117 -126 163 -86 60 -97 101 -44 161 44 51 -15 163 -113 212
-54 27 -264 85 -389 108 -66 11 -129 26 -140 31 -37 19 -74 60 -80 90 -5 19
-20 37 -46 54 -41 25 -52 61 -26 82 7 6 123 18 257 27 263 17 328 22 690 61
329 34 332 35 357 50 12 8 38 14 57 14 51 0 174 25 236 49 30 11 80 40 110 63
84 64 184 126 253 158 69 32 216 54 450 69 155 9 171 19 187 116 26 161 3 304
-66 407 -46 67 -55 98 -43 143 12 41 2 38 204 60 360 40 525 97 575 201 33 68
38 180 11 277 -11 42 -21 91 -21 107 0 19 -7 33 -20 40 -11 6 -20 8 -20 4 0
-13 -42 30 -55 56 -7 14 -15 45 -19 70 -4 25 -18 80 -31 123 -16 49 -25 102
-25 141 0 44 -5 67 -15 76 -8 7 -15 18 -15 25 0 7 -6 15 -14 18 -8 3 -22 17
-31 31 -15 22 -15 27 -1 54 9 17 31 40 51 52 19 12 35 28 35 36 0 18 -60 113
-82 132 -8 6 -36 19 -63 26 -26 8 -55 22 -66 32 -28 25 -24 79 10 133 16 25
32 56 35 67 9 30 -9 70 -41 91 -24 16 -53 18 -273 18 l-245 0 -50 28 -50 28
-115 -10 c-670 -62 -1096 -69 -1585 -28 -361 31 -1262 157 -1276 178 -11 17
-3 59 15 77 8 8 69 19 151 28 76 8 145 20 153 27 8 6 39 63 68 125 30 63 72
136 94 164 48 61 53 110 17 178 -32 60 -70 78 -198 89 -148 13 -195 40 -278
163 -45 67 -91 110 -201 186 -152 106 -182 149 -144 207 15 23 15 26 -17 54
-35 33 -55 42 -142 66 -41 12 -74 30 -110 62 -103 92 -210 112 -381 73 -91
-21 -113 -22 -309 -17 -262 8 -490 30 -521 51 -19 12 -24 26 -28 72 -6 65 -25
88 -86 103 -270 65 -331 92 -389 171 -70 95 -94 118 -184 181 -179 123 -211
166 -173 224 15 23 15 26 -13 53 -18 18 -59 39 -112 57 -61 20 -96 39 -132 71
-88 78 -130 91 -419 133 -336 49 -725 88 -1110 111 -556 33 -676 34 -2775 36
-1326 0 -2266 5 -2510 12 -416 12 -1583 13 -2030 2z"/>
</g>
</svg>
