<?xml version="1.0" standalone="no"?>
<!DOCTYPE svg PUBLIC "-//W3C//DTD SVG 20010904//EN"
 "http://www.w3.org/TR/2001/REC-SVG-20010904/DTD/svg10.dtd">
<svg version="1.0" xmlns="http://www.w3.org/2000/svg"
 width="2000.000000pt" height="2000.000000pt" viewBox="0 0 2000.000000 2000.000000"
 preserveAspectRatio="xMidYMid meet">

<g transform="translate(0.000000,2000.000000) scale(0.100000,-0.100000)"
fill="#ffd900" stroke="none">
<path d="M7215 14870 c-27 -5 -83 -17 -123 -26 -66 -16 -73 -16 -90 -1 -25 23
-89 3 -112 -36 l-17 -28 -31 26 c-34 29 -58 31 -90 10 -18 -13 -29 -14 -62 -5
-26 7 -86 9 -168 4 -104 -5 -143 -12 -212 -36 -71 -25 -100 -30 -174 -29 -49
0 -95 -4 -101 -9 -7 -5 -48 -17 -93 -25 -45 -9 -134 -33 -198 -55 -64 -21
-141 -44 -172 -51 -31 -6 -63 -15 -71 -20 -9 -4 -37 -11 -63 -14 -51 -7 -50
-6 -61 -80 -4 -20 0 -33 11 -42 15 -12 15 -13 -3 -8 -11 3 -5 -2 13 -10 18 -9
30 -20 27 -25 -3 -6 -4 -10 0 -10 6 0 28 48 29 64 1 5 7 11 15 14 8 3 11 0 8
-5 -3 -5 3 -9 13 -9 10 0 16 5 13 10 -4 5 1 7 11 3 10 -4 21 -7 24 -7 4 0 13
-10 21 -22 10 -18 11 -20 0 -10 -7 6 -18 12 -23 12 -13 -1 24 -23 42 -26 8 -2
21 -6 30 -9 9 -4 46 -9 82 -10 36 -2 75 -6 86 -10 13 -4 26 -2 32 7 50 61 75
88 82 88 4 0 13 -14 19 -31 10 -30 12 -31 53 -24 24 4 52 13 64 20 18 12 24
11 38 -3 13 -13 21 -14 45 -5 23 8 36 7 60 -4 35 -17 40 -37 14 -53 -17 -10
-17 -11 1 -8 12 2 24 17 31 38 l13 35 11 -28 c15 -38 33 -24 25 19 -5 30 -4
34 15 34 11 0 26 10 32 22 11 20 13 19 65 -37 45 -48 57 -56 76 -50 74 23 98
13 98 -40 0 -24 5 -56 10 -71 14 -35 4 -44 -16 -16 -8 12 -19 20 -24 17 -5 -3
-12 -1 -15 5 -5 8 -11 7 -21 -1 -11 -9 -23 -9 -52 0 -44 14 -123 11 -144 -7
-11 -9 -23 -9 -46 -1 -22 8 -36 7 -52 -1 -12 -7 -36 -9 -54 -6 -21 4 -39 1
-51 -9 -11 -8 -30 -15 -43 -15 -13 0 -32 -9 -44 -19 -21 -20 -46 -21 -111 -5
-18 4 -45 0 -75 -12 -51 -19 -227 -28 -249 -12 -6 5 -14 4 -18 -2 -5 -8 -11
-8 -21 1 -9 8 -18 8 -26 2 -7 -6 -22 -9 -33 -7 -11 3 -72 7 -135 10 -63 2
-135 7 -160 10 -25 2 -65 6 -90 8 -25 3 -65 7 -90 11 -231 31 -626 28 -638 -6
-2 -5 -9 -6 -15 -2 -7 3 -8 2 -4 -2 4 -5 13 -10 20 -11 7 -1 30 -5 52 -9 22
-4 54 -8 71 -10 17 -1 37 -6 44 -10 9 -6 11 -4 5 6 -8 12 -6 12 8 1 9 -8 36
-15 60 -16 24 -2 48 -5 53 -8 12 -7 108 -3 121 5 14 9 95 -51 87 -64 -4 -8
-10 -7 -17 0 -14 14 -30 14 -22 1 3 -5 0 -7 -7 -5 -20 8 -57 -63 -72 -137
l-13 -63 -44 2 c-78 5 -232 22 -289 33 -30 5 -89 12 -130 15 -41 3 -110 10
-153 16 -43 5 -97 7 -121 4 -31 -5 -51 -3 -67 8 -13 8 -62 17 -109 21 -47 3
-107 12 -135 20 -27 7 -64 11 -81 9 -18 -3 -34 0 -38 6 -4 6 -20 11 -37 11
-16 0 -29 4 -29 9 0 10 -46 15 -262 29 -81 6 -152 13 -158 17 -6 3 -87 8 -181
9 -168 2 -171 2 -181 -20 l-10 -22 -42 24 c-55 32 -84 30 -122 -7 l-32 -31
-14 29 c-12 25 -18 28 -58 26 -61 -3 -218 -4 -257 -1 -17 1 -39 -5 -49 -13
-12 -10 -52 -15 -143 -17 -117 -2 -195 -5 -313 -10 -33 -1 -55 -9 -77 -28 -17
-14 -31 -21 -31 -16 0 5 -11 10 -25 10 -15 0 -24 -5 -22 -12 3 -6 10 -10 16
-8 7 1 10 -2 6 -8 -4 -7 -16 -3 -32 10 -14 11 -30 20 -34 20 -17 0 -49 -40
-49 -60 0 -12 -12 -32 -27 -46 l-28 -24 130 2 c140 1 170 -4 195 -34 12 -15
34 -22 83 -27 67 -7 116 -33 91 -49 -6 -4 -17 -30 -23 -58 l-12 -52 -52 -6
c-29 -3 -80 -9 -115 -12 -50 -5 -67 -12 -82 -31 l-18 -24 -34 21 c-42 25 -64
25 -161 -4 -75 -22 -120 -46 -85 -46 8 0 21 -7 28 -15 14 -17 50 -20 50 -5 0
6 7 10 15 10 29 0 15 -34 -32 -77 -26 -24 -57 -46 -68 -49 -23 -8 -35 -22 -35
-46 0 -13 7 -16 33 -14 17 2 40 7 51 11 41 17 44 -52 4 -87 -22 -19 -32 -23
-24 -10 13 21 -26 6 -50 -19 -24 -25 -26 -58 -3 -44 5 4 9 1 9 -6 0 -8 3 -9
14 0 10 8 16 8 25 -2 6 -8 28 -13 50 -13 22 1 37 -2 35 -6 -2 -3 5 -10 17 -13
11 -4 18 -9 15 -13 -3 -3 1 -14 10 -24 12 -13 21 -15 30 -7 17 14 23 -1 12
-38 -7 -26 -20 -37 -71 -62 -35 -17 -70 -31 -77 -31 -7 0 -21 -7 -31 -16 -9
-8 -26 -16 -36 -17 -11 0 -20 -6 -21 -12 -9 -54 -8 -76 4 -86 8 -6 11 -15 8
-20 -8 -13 10 -11 25 4 11 10 13 10 7 0 -4 -7 -4 -13 -1 -13 4 0 13 6 20 13
50 44 55 45 80 20 13 -13 21 -14 34 -6 9 6 15 15 14 20 -1 5 7 9 18 9 10 0 19
-4 19 -9 0 -4 5 -5 12 -1 7 4 8 3 4 -5 -4 -6 -2 -18 4 -26 15 -18 34 -20 24
-2 -6 10 -4 10 7 0 7 -7 22 -13 34 -12 20 0 20 0 0 9 -17 8 -17 9 7 7 15 -1
24 -5 22 -9 -3 -4 2 -8 11 -8 9 0 14 4 11 8 -6 11 47 9 55 -2 7 -9 39 6 62 29
13 13 18 12 39 -8 13 -12 34 -40 47 -61 l24 -39 -23 -19 c-13 -11 -32 -17 -43
-14 -11 3 -32 -4 -48 -16 -20 -15 -32 -18 -41 -11 -24 20 -115 0 -149 -33 -18
-17 -39 -28 -51 -26 -11 2 -30 -6 -42 -17 -12 -11 -38 -27 -59 -36 -45 -19
-49 -45 -9 -73 21 -15 32 -18 46 -10 13 7 22 6 35 -6 12 -11 30 -15 57 -12 59
7 108 15 121 21 7 2 26 -10 43 -28 l30 -32 15 23 c23 32 55 29 55 -4 0 -21 -4
-25 -20 -21 -11 3 -22 2 -25 -2 -2 -4 -18 -6 -34 -3 -27 4 -91 -16 -91 -28 0
-3 -17 -6 -37 -7 -51 -2 -135 -17 -151 -27 -7 -4 -12 -15 -10 -24 2 -13 23
-19 88 -28 73 -10 87 -9 103 4 16 14 19 14 33 -6 13 -19 22 -21 50 -16 28 5
40 2 59 -16 l23 -22 7 31 c4 17 11 31 16 31 6 0 8 -4 4 -9 -3 -5 3 -12 14 -16
20 -6 57 -54 53 -68 -1 -5 2 -6 8 -2 5 3 19 1 31 -6 12 -6 19 -7 16 -2 -3 4
10 16 29 25 19 10 34 13 34 8 0 -6 4 -9 8 -7 4 1 24 -6 43 -17 29 -15 46 -17
92 -12 31 4 57 12 57 17 0 26 104 -21 170 -76 25 -21 56 -43 70 -49 14 -6 37
-19 53 -30 26 -17 39 -18 80 -1 12 5 17 3 17 -8 0 -24 -28 -40 -82 -46 -3 -1
-8 -9 -11 -18 -3 -15 -6 -14 -14 7 l-10 24 -18 -37 c-20 -43 -20 -42 37 -71
33 -16 43 -27 43 -46 0 -23 -3 -25 -36 -22 -31 3 -39 -2 -63 -32 -15 -20 -35
-36 -45 -36 -10 0 -24 -7 -31 -15 -11 -13 -15 -13 -40 0 -16 8 -31 11 -34 6
-15 -23 -32 -139 -24 -160 4 -13 4 -30 -2 -41 -12 -23 -100 -50 -205 -62 -44
-5 -119 -18 -168 -29 -78 -19 -88 -23 -94 -47 -3 -14 -17 -35 -31 -47 -18 -15
-25 -32 -26 -61 -1 -39 -1 -39 41 -42 42 -3 42 -3 45 -45 3 -41 4 -42 50 -54
76 -18 85 -31 48 -71 -16 -17 -33 -22 -73 -23 -89 -1 -132 -12 -135 -35 -2
-11 4 -27 13 -34 17 -14 20 -40 5 -40 -5 0 -17 -11 -26 -26 -20 -30 -7 -52 22
-36 28 14 44 4 44 -28 0 -32 23 -60 49 -60 26 0 44 -23 29 -38 -7 -7 -20 -12
-30 -12 -10 0 -18 -4 -18 -10 0 -5 -7 -7 -15 -4 -21 8 -85 -15 -85 -31 0 -14
21 -25 47 -25 8 0 41 -16 74 -36 53 -33 64 -36 127 -35 89 2 96 -6 74 -84 -23
-81 -26 -85 -67 -78 -37 6 -75 -16 -75 -43 0 -6 -14 -17 -32 -23 -36 -13 -78
-48 -78 -66 0 -6 26 -25 58 -42 l58 -29 16 20 c13 17 20 19 35 10 12 -8 23 -8
34 -1 13 8 23 3 46 -23 27 -31 36 -34 99 -37 77 -4 89 -11 80 -45 -13 -48 -23
-55 -49 -30 -34 32 -58 27 -101 -18 -21 -22 -43 -40 -49 -41 -7 -1 -37 -2 -67
-3 -74 -4 -169 -35 -187 -63 -19 -29 -3 -59 37 -67 16 -3 43 -9 60 -12 32 -6
32 -13 -9 -64 -18 -22 -23 -23 -41 -12 -18 11 -20 10 -20 -10 0 -30 36 -88 54
-88 7 0 24 -8 37 -19 38 -29 180 -72 260 -77 45 -3 87 -13 109 -24 63 -35 141
-60 164 -54 14 3 27 -1 35 -10 17 -20 35 -20 50 -2 14 16 69 27 77 14 10 -16
70 -35 99 -31 18 3 69 -9 123 -27 83 -28 96 -30 120 -18 28 14 255 19 268 5
12 -12 -26 -57 -48 -57 -12 0 -32 -9 -44 -21 -19 -17 -28 -19 -51 -12 -25 9
-31 6 -55 -21 -35 -39 -35 -52 1 -71 32 -16 47 -46 34 -68 -14 -24 -77 -74
-103 -82 -29 -9 -40 -22 -40 -51 0 -12 -9 -31 -20 -44 -11 -13 -20 -32 -20
-42 0 -11 -12 -35 -26 -53 -33 -44 -28 -64 21 -90 22 -11 43 -23 46 -28 12
-16 125 -37 202 -37 l83 0 42 -43 c33 -34 42 -50 42 -78 l0 -36 -92 2 c-51 1
-100 5 -109 9 -36 16 -30 -32 12 -95 14 -19 19 -56 24 -155 5 -86 13 -148 26
-185 22 -65 24 -102 6 -118 -24 -19 -75 -24 -108 -11 -26 11 -32 11 -40 -1
-14 -22 -11 -27 26 -44 19 -9 39 -23 46 -31 6 -8 21 -14 33 -14 33 -1 73 -49
81 -100 11 -69 8 -209 -5 -225 -7 -8 -17 -38 -24 -67 -10 -46 -15 -53 -37 -56
-28 -3 -54 -46 -62 -102 -3 -19 -8 -42 -12 -51 -4 -11 5 -29 24 -52 18 -20 29
-41 25 -50 -3 -8 1 -28 9 -44 28 -53 55 -141 47 -153 -4 -6 -16 -10 -27 -8
-27 4 -71 -21 -79 -44 -8 -28 16 -60 142 -186 108 -107 115 -113 147 -107 25
5 37 2 51 -14 20 -22 56 -27 86 -11 14 8 26 1 63 -35 46 -47 92 -60 115 -32 8
10 27 11 69 7 32 -4 61 -3 64 2 8 12 61 -9 77 -29 11 -16 13 -15 25 1 12 16
14 16 26 2 8 -9 24 -16 37 -16 13 0 45 -10 69 -21 43 -20 47 -21 65 -4 17 16
20 16 47 -3 15 -10 40 -27 56 -36 15 -9 27 -24 27 -34 0 -9 4 -24 10 -32 8
-12 11 -12 28 3 10 9 31 17 45 17 15 0 27 4 27 9 0 5 19 11 43 14 23 3 53 7
66 9 19 2 26 -3 31 -21 8 -35 28 -37 32 -4 3 26 6 28 47 27 39 -1 49 -6 84
-44 37 -39 42 -42 61 -29 12 8 53 14 95 15 59 1 77 5 88 19 12 17 14 15 28
-18 18 -42 24 -45 48 -17 26 31 51 25 75 -18 27 -49 62 -82 62 -60 0 9 6 21
14 27 17 14 41 -7 58 -48 l11 -26 6 24 c10 36 23 35 50 -4 30 -44 69 -49 42
-6 -13 20 5 51 28 51 9 0 27 -11 39 -25 26 -30 58 -33 67 -6 15 48 65 47 81
-1 4 -13 15 -34 25 -47 11 -13 19 -34 19 -46 0 -12 9 -30 19 -39 18 -16 21
-16 51 -1 23 12 35 14 43 6 6 -6 22 -11 35 -11 13 0 35 -13 50 -28 35 -38 54
-43 86 -27 25 13 54 5 147 -43 4 -1 9 9 13 23 8 30 40 34 55 6 6 -10 26 -22
46 -25 19 -4 35 -11 35 -16 0 -14 101 -59 159 -70 30 -6 56 -12 58 -14 2 -2 6
-19 8 -37 7 -51 32 -70 78 -60 36 9 43 4 38 -23 -4 -19 10 -57 19 -51 5 3 11
1 15 -5 3 -5 11 -10 16 -10 6 0 7 6 2 13 -4 6 5 4 20 -6 14 -9 35 -17 47 -17
12 0 20 -7 20 -16 0 -11 -5 -14 -17 -9 -15 5 -16 4 -5 -6 15 -16 16 -59 1 -59
-5 0 -7 -4 -4 -10 3 -5 15 -10 25 -10 10 0 23 -6 27 -14 4 -8 17 -15 28 -17
11 -2 28 -20 37 -39 25 -48 56 -70 91 -63 17 4 32 1 36 -6 4 -7 41 -13 88 -15
45 -2 86 -7 92 -10 6 -4 15 -5 19 -2 5 3 29 6 55 7 38 2 47 6 47 21 0 15 6 17
43 12 35 -5 55 0 111 26 62 30 74 32 135 27 85 -7 139 8 160 45 9 15 19 28 24
28 13 0 47 -64 47 -88 0 -31 37 -43 108 -36 39 4 74 1 111 -10 30 -9 78 -16
107 -16 47 0 55 -3 74 -30 l22 -30 30 25 c27 23 33 24 46 12 12 -13 18 -13 47
4 26 16 34 17 38 6 3 -8 18 -12 36 -11 17 1 29 -2 26 -6 -10 -16 16 -22 32 -8
10 8 14 8 10 1 -4 -6 -3 -14 2 -18 6 -3 7 -13 4 -22 -4 -10 -2 -14 5 -9 6 3
14 2 17 -4 4 -6 15 -8 26 -5 13 4 19 2 17 -6 -2 -7 9 -17 24 -23 24 -8 31 -6
48 12 25 26 32 27 70 7 18 -10 30 -11 30 -5 0 7 6 8 19 0 16 -8 23 -5 39 15
15 19 27 24 52 21 17 -2 36 -8 41 -13 11 -11 1 -46 -10 -39 -4 3 -13 1 -19 -3
-8 -4 2 -8 23 -8 20 0 31 3 26 7 -6 3 -2 11 9 18 23 14 34 1 25 -28 -5 -15 -2
-20 14 -20 11 0 22 4 26 9 7 13 100 3 144 -15 19 -8 39 -10 45 -6 6 5 21 9 34
10 19 1 21 -2 12 -13 -18 -21 -3 -37 21 -24 11 6 28 7 37 4 9 -4 48 -13 86
-21 66 -13 70 -13 83 6 25 36 113 20 113 -20 0 -13 9 -21 28 -25 15 -3 41 -12
57 -20 17 -8 51 -17 78 -21 26 -3 59 -15 72 -26 21 -17 30 -18 56 -9 25 9 37
7 63 -7 17 -9 37 -24 43 -32 11 -13 15 -12 32 9 l19 24 16 -31 c9 -18 19 -32
23 -32 4 0 19 15 34 33 l27 32 26 -24 c22 -20 32 -23 70 -18 45 6 98 -5 126
-28 9 -7 41 -11 77 -10 l63 2 30 -54 c19 -34 41 -58 58 -64 15 -6 35 -19 45
-30 21 -23 46 -24 94 -4 54 23 81 20 89 -11 4 -14 1 -37 -5 -51 -9 -20 -17
-24 -35 -19 -33 8 -52 -17 -40 -52 8 -24 15 -27 59 -29 46 -1 71 5 117 28 10
5 33 9 53 9 27 0 39 -7 57 -30 12 -16 28 -30 35 -30 22 0 27 29 8 50 -22 25
-34 139 -14 137 31 -2 79 16 79 30 0 28 -20 51 -51 58 -18 4 -33 15 -36 25 -4
15 -10 17 -33 10 -38 -11 -104 12 -108 37 -2 10 -10 47 -19 81 l-16 64 -18
-23 c-15 -21 -19 -22 -24 -7 -4 9 -2 26 5 37 15 29 -1 56 -48 80 -20 10 -46
28 -56 40 -11 12 -25 21 -33 21 -20 0 -16 27 9 60 34 47 68 37 83 -23 8 -31
52 -70 68 -60 11 7 102 5 127 -2 8 -3 24 -21 35 -40 l20 -34 33 20 c38 25 41
45 8 60 -17 8 -25 21 -28 48 -4 29 3 49 36 103 44 72 71 85 107 52 13 -12 19
-12 25 -3 5 8 3 10 -7 5 -8 -4 -3 2 11 13 42 35 58 28 62 -26 2 -38 8 -50 26
-59 13 -6 30 -21 38 -33 21 -29 29 -27 48 14 18 37 13 80 -10 89 -19 7 -18 36
1 36 21 0 75 28 102 53 20 18 27 19 60 9 59 -17 129 -22 141 -10 8 8 21 5 47
-11 45 -26 50 -26 83 0 24 18 28 19 38 5 8 -12 30 -16 91 -16 68 0 83 -3 98
-20 10 -12 25 -18 32 -16 7 3 15 0 19 -6 5 -7 2 -8 -6 -3 -8 5 -11 4 -7 -2 3
-5 30 -8 62 -5 39 3 55 1 55 -8 0 -7 8 -10 20 -7 11 3 22 2 25 -2 2 -4 18 -6
35 -3 17 2 40 -2 53 -10 46 -30 81 -36 99 -17 9 10 14 20 11 23 -3 3 9 1 26
-4 30 -8 32 -8 19 8 -8 10 -1 7 16 -6 15 -12 32 -19 37 -16 18 11 49 12 49 2
0 -6 9 -8 20 -5 11 3 23 0 27 -6 4 -7 9 -3 14 9 7 17 8 17 8 2 1 -16 11 -22
31 -20 3 0 7 -9 7 -21 1 -12 7 -23 13 -25 5 -2 8 -8 4 -13 -3 -5 1 -9 9 -9 19
0 30 45 17 69 -8 16 -5 22 20 35 17 8 28 10 25 5 -4 -5 -1 -10 4 -10 16 -2 23
-4 49 -13 14 -5 28 -3 37 4 8 6 19 9 24 6 5 -4 12 -2 16 4 4 6 11 8 16 4 5 -3
6 -10 3 -16 -4 -6 7 -2 25 8 26 16 35 17 52 6 23 -15 97 -24 113 -15 14 9 115
10 110 1 -8 -13 60 -26 81 -15 17 9 18 8 8 -4 -10 -12 -5 -14 33 -14 24 0 44
-3 44 -7 0 -5 30 -8 66 -8 41 0 63 4 59 10 -4 6 -11 7 -17 4 -7 -5 -8 -2 -3 5
5 9 14 6 31 -10 23 -22 90 -37 79 -18 -4 5 3 5 17 0 21 -8 121 -26 201 -37 18
-3 93 -9 167 -13 74 -5 165 -16 201 -25 46 -11 102 -15 180 -13 125 2 155 -4
164 -34 9 -29 67 -89 85 -89 9 0 21 19 30 48 l15 47 150 7 c83 4 191 4 241 1
71 -4 97 -2 121 10 23 12 33 13 42 4 19 -19 289 -4 351 21 14 5 40 7 58 4 24
-3 42 1 60 15 19 14 38 18 64 15 25 -3 48 2 70 15 27 15 40 17 77 9 29 -6 62
-5 105 3 34 7 100 16 146 21 246 24 305 33 327 47 30 20 29 26 -12 103 -19 35
-35 76 -35 91 0 16 -4 30 -8 33 -5 3 -21 44 -37 91 -24 74 -26 89 -15 115 10
24 10 36 0 60 -24 57 -7 64 175 74 97 5 132 17 137 48 5 36 63 60 111 47 68
-19 100 9 72 64 -8 16 -15 32 -15 34 0 1 23 3 50 3 36 0 52 4 57 15 4 11 14
14 34 11 16 -2 32 0 35 5 3 5 0 8 -7 7 -7 -2 -15 5 -17 15 -3 17 -2 18 20 3
12 -8 26 -15 31 -16 4 0 6 -3 5 -7 -2 -5 -7 -7 -11 -5 -5 1 -6 -2 -2 -8 5 -8
11 -8 20 0 16 13 39 4 30 -11 -4 -5 2 -9 12 -10 10 0 26 -2 36 -4 23 -4 77
103 77 154 1 20 7 47 15 61 17 29 19 44 6 35 -5 -3 -12 4 -16 15 -3 11 -11 20
-16 20 -6 0 -7 4 -4 10 3 5 0 7 -8 4 -9 -3 -22 4 -31 18 -9 13 -20 22 -24 22
-11 -2 -52 33 -52 44 0 6 17 14 37 18 30 6 39 3 53 -14 10 -12 28 -22 41 -24
13 -2 31 -8 39 -13 13 -8 13 -7 1 8 -7 9 -18 14 -25 10 -8 -5 -8 -3 0 8 6 8
10 22 9 31 -2 9 8 27 21 39 13 12 24 32 24 44 0 12 11 31 24 44 25 23 25 31 4
127 -13 63 -5 104 21 104 23 0 32 20 25 55 -4 21 0 28 16 32 13 3 34 34 61 91
33 68 42 96 42 139 0 49 2 54 20 49 33 -8 67 11 67 38 0 19 -8 28 -35 37 -20
8 -37 22 -41 33 -15 54 -28 76 -45 76 -43 0 -81 108 -77 222 3 72 5 81 23 84
30 4 55 42 55 84 0 25 7 43 21 56 32 29 49 69 49 114 0 32 8 51 41 93 l42 52
-7 72 c-8 98 10 117 93 93 26 -7 40 -6 65 7 45 24 131 42 147 32 8 -5 29 -9
47 -9 28 0 35 5 48 35 9 23 21 35 34 35 10 0 36 11 56 25 20 14 43 25 50 25 7
0 19 9 27 20 18 26 66 50 99 50 21 0 29 6 34 24 4 18 14 25 45 30 42 7 129 45
129 57 0 4 -7 14 -15 23 -8 8 -15 24 -15 36 0 13 -8 24 -20 27 -22 6 -25 24
-10 53 10 19 11 19 45 -1 50 -30 72 -19 89 44 8 29 16 70 18 92 l3 40 -62 3
c-51 2 -63 6 -68 22 -4 11 -15 20 -26 20 -10 0 -19 5 -19 10 0 13 37 50 50 50
6 0 10 16 10 35 0 22 5 35 13 35 14 0 87 73 87 87 0 9 -176 0 -200 -11 -10 -4
-24 2 -38 19 -12 14 -26 25 -31 25 -24 0 -19 34 8 59 16 15 31 40 33 56 3 24
11 31 58 47 30 11 78 23 105 28 106 17 119 24 130 73 5 18 3 27 -5 27 -6 0 -9
-3 -7 -7 3 -5 -23 -8 -56 -8 -61 0 -62 1 -62 28 0 30 12 39 93 73 51 21 70 40
54 56 -8 8 -36 6 -104 -8 -51 -10 -133 -19 -183 -20 -52 0 -102 -6 -118 -14
-20 -10 -31 -10 -38 -3 -7 7 -31 9 -60 6 -32 -3 -55 -1 -64 7 -20 16 -19 30 1
30 8 0 29 13 46 30 16 16 37 30 46 31 89 3 363 46 375 58 7 7 7 18 -3 35 -16
31 -8 54 23 65 13 5 34 26 45 45 12 20 29 39 38 43 21 8 54 86 54 127 0 20 8
40 20 51 22 20 27 61 8 68 -7 2 -51 2 -98 0 -130 -8 -520 68 -520 100 0 25 40
52 84 59 11 2 32 24 47 49 l27 47 -38 6 c-30 5 -48 17 -84 58 -51 58 -54 79
-16 90 50 14 237 41 325 47 72 5 100 11 137 32 35 20 68 29 130 34 96 8 133
24 142 59 7 30 81 84 127 93 19 3 52 26 83 57 29 28 62 58 75 66 17 11 24 28
28 65 4 38 14 59 38 86 30 34 52 76 43 84 -3 3 -43 7 -218 21 -53 4 -98 14
-121 26 -21 11 -46 18 -57 16 -10 -2 -27 4 -37 12 -17 13 -18 13 -10 0 8 -13
7 -13 -8 -1 -11 9 -30 12 -52 8 -21 -3 -35 -2 -35 4 0 6 -10 8 -22 4 -16 -4
-19 -3 -10 3 11 8 10 13 -7 29 l-21 20 22 -2 c16 -1 22 -8 20 -21 -2 -15 -1
-16 7 -5 5 8 7 20 4 27 -2 6 2 12 9 11 43 -1 78 4 73 12 -3 5 0 13 6 17 7 4 9
3 6 -3 -4 -6 0 -17 9 -24 12 -10 20 -10 34 -1 16 10 18 9 14 -3 -7 -17 21 -21
31 -5 4 6 11 8 16 5 5 -4 9 -2 9 3 0 8 33 19 72 26 3 1 9 4 12 9 3 4 3 5 0 2
-4 -2 -13 3 -21 11 -8 8 -19 11 -25 8 -7 -4 -8 -2 -4 4 4 8 0 12 -11 12 -13 1
-10 5 11 16 41 23 20 37 -65 45 -76 7 -94 17 -85 47 8 23 69 32 251 35 103 2
126 5 163 25 l43 23 -6 67 c-4 37 -16 82 -26 100 -10 18 -19 51 -19 72 0 55
-7 68 -48 81 -42 13 -72 36 -72 55 0 7 -9 18 -20 24 -11 6 -20 16 -20 22 0 6
-8 17 -17 24 -17 13 -17 15 1 29 11 8 36 17 55 21 54 8 61 12 67 31 3 10 14
35 24 55 11 20 20 39 20 42 0 3 -41 27 -92 52 -61 31 -126 54 -199 70 -59 13
-126 31 -150 39 -23 8 -81 20 -128 25 -204 23 -310 41 -361 60 -30 11 -56 20
-57 20 -2 0 -3 11 -3 23 0 50 58 73 202 84 64 4 68 6 87 39 12 20 34 40 51 45
36 13 36 16 9 45 -17 18 -25 20 -47 12 -23 -9 -34 -6 -66 16 -21 14 -46 26
-54 26 -9 0 -27 10 -40 23 -14 12 -22 15 -18 7 5 -9 2 -8 -7 3 -8 9 -20 17
-27 17 -7 0 -11 3 -7 6 3 4 0 19 -8 35 -11 20 -12 30 -3 35 7 4 8 3 4 -4 -4
-7 -3 -12 3 -12 15 0 26 23 13 28 -7 2 -12 17 -12 33 0 22 -5 29 -20 29 -18 0
-26 17 -21 44 1 5 -6 3 -16 -5 -17 -13 -17 -13 0 14 10 16 16 31 13 34 -3 3 1
12 9 20 8 8 15 20 15 26 0 7 -4 6 -10 -3 -5 -8 -10 -11 -10 -6 0 4 -12 1 -26
-9 -14 -9 -28 -15 -30 -12 -9 8 -13 47 -5 42 5 -2 11 7 14 21 3 16 -1 28 -10
31 -16 6 -44 -27 -36 -41 4 -5 1 -6 -5 -2 -6 3 -14 1 -18 -5 -5 -9 -10 -8 -19
4 -22 30 -101 49 -171 42 -40 -5 -69 -3 -77 3 -20 17 -169 56 -212 55 -22 0
-53 -4 -69 -8 -23 -6 -32 -4 -45 13 -15 20 -20 21 -86 11 -74 -11 -191 -4
-200 12 -4 5 -15 9 -26 9 -11 0 -26 6 -34 13 -20 21 -206 43 -233 28 -16 -9
-32 -9 -55 -2 -18 5 -63 14 -102 20 -128 18 -339 52 -445 71 -125 23 -484 62
-555 60 -184 -3 -253 0 -295 15 -29 11 -90 17 -175 20 -71 2 -146 8 -165 14
-19 6 -114 11 -210 11 -96 0 -206 5 -245 10 -85 10 -204 12 -430 5 -212 -7
-202 -7 -251 1 -29 4 -53 1 -77 -11 -20 -9 -41 -14 -46 -10 -6 3 -19 1 -30 -5
-11 -5 -27 -7 -36 -4 -19 8 -14 47 16 110 10 22 19 45 19 52 0 20 -43 42 -82
42 -32 0 -45 7 -80 45 -23 25 -48 45 -54 45 -7 0 -24 -14 -38 -31 -14 -17 -32
-29 -38 -27 -7 3 -27 31 -44 64 l-31 59 -92 2 c-63 2 -102 -2 -119 -11 -15 -7
-66 -16 -114 -18 -80 -4 -92 -7 -130 -36 -84 -62 -143 -90 -213 -101 -91 -13
-352 -15 -435 -2 -36 6 -100 11 -142 11 -43 0 -120 7 -170 16 -65 11 -120 14
-182 10 -62 -4 -93 -2 -103 6 -8 6 -36 15 -61 19 -93 15 -358 95 -368 110 -3
5 -21 9 -39 9 -19 0 -69 14 -110 30 -42 17 -134 45 -204 64 -70 18 -142 41
-160 50 -18 10 -38 15 -44 13 -7 -2 -34 4 -62 14 -75 27 -193 55 -355 83 -80
14 -206 41 -280 60 l-135 35 -18 -21 c-10 -12 -19 -19 -20 -17 -1 2 -7 13 -13
23 -8 15 -34 24 -115 38 -126 22 -390 54 -514 63 -49 4 -106 10 -125 15 -67
18 -267 29 -597 36 -308 6 -334 5 -362 -12 -24 -14 -33 -16 -43 -6 -15 15 -50
15 -82 1 -17 -8 -29 -9 -38 -2 -17 13 -477 24 -543 13z m-1380 -343 c0 -26
-20 -25 -23 2 -3 16 1 22 10 19 7 -3 13 -12 13 -21z m991 -95 c5 -4 20 -23 32
-43 l22 -36 -34 -1 c-20 -1 -44 6 -57 17 -22 18 -22 19 -6 45 18 27 25 30 43
18z m-186 -32 c0 -25 -18 -36 -26 -16 -8 21 3 49 16 41 5 -3 10 -15 10 -25z
m-5370 -1094 c0 -2 -8 -10 -17 -17 -16 -13 -17 -12 -4 4 13 16 21 21 21 13z
m16030 -40 c0 -2 -6 -9 -14 -15 -11 -9 -16 -9 -22 0 -4 7 -3 9 4 5 6 -3 13 -2
17 4 6 10 15 14 15 6z m250 -51 c21 -13 -3 -26 -45 -24 -24 2 -42 6 -39 11 3
4 12 8 20 8 8 0 14 4 14 9 0 10 32 7 50 -4z m-15927 -12 c9 -15 -6 -75 -19
-80 -8 -3 -25 -2 -39 1 -19 5 -25 13 -25 34 0 15 5 33 12 40 13 13 64 16 71 5z
m15300 0 c-7 -2 -19 -2 -25 0 -7 3 -2 5 12 5 14 0 19 -2 13 -5z m814 -169 c-3
-3 -12 -4 -19 -1 -8 3 -5 6 6 6 11 1 17 -2 13 -5z m-15749 -166 c-7 -19 -38
-22 -38 -4 0 10 9 16 21 16 12 0 19 -5 17 -12z m16363 -1055 c13 -16 12 -17
-3 -4 -17 13 -22 21 -14 21 2 0 10 -8 17 -17z m233 -72 c4 -5 -3 -7 -14 -4
-23 6 -26 13 -6 13 8 0 17 -4 20 -9z m-16620 -497 c16 -6 23 -34 8 -34 -10 0
-32 22 -32 32 0 10 3 10 24 2z m1141 -2744 c-3 -5 -15 -10 -26 -10 -11 0 -17
5 -14 10 3 6 15 10 26 10 11 0 17 -4 14 -10z m76 -50 c21 -12 26 -40 8 -40
-12 0 -38 29 -39 43 0 10 8 9 31 -3z m-41 -910 c0 -5 -2 -10 -4 -10 -3 0 -8 5
-11 10 -3 6 -1 10 4 10 6 0 11 -4 11 -10z m13714 -930 c-6 -6 -15 -5 -24 1
-13 9 -12 10 3 5 9 -3 17 0 17 6 0 6 3 8 7 5 4 -4 2 -12 -3 -17z m-10590 -438
c3 -5 -1 -9 -9 -9 -8 0 -12 4 -9 9 3 4 7 8 9 8 2 0 6 -4 9 -8z m17 -49 c13
-16 12 -17 -3 -4 -10 7 -18 15 -18 17 0 8 8 3 21 -13z m34 7 c3 -6 -1 -7 -9
-4 -18 7 -21 14 -7 14 6 0 13 -4 16 -10z m6215 -315 c0 -2 -9 -3 -19 -2 -11 0
-18 5 -15 9 4 6 34 0 34 -7z m-4580 -9 c0 -8 -4 -17 -9 -21 -12 -7 -24 12 -16
25 9 15 25 12 25 -4z m4478 -51 c-3 -3 -9 2 -12 12 -6 14 -5 15 5 6 7 -7 10
-15 7 -18z m848 -7 c3 -4 -1 -5 -10 -4 -8 1 -18 5 -22 8 -3 4 1 5 10 4 8 -1
18 -5 22 -8z"/>
<path d="M5333 14395 c0 -8 4 -12 9 -9 5 3 6 10 3 15 -9 13 -12 11 -12 -6z"/>
<path d="M1658 13903 c6 -2 9 -10 6 -15 -4 -7 -2 -8 5 -4 13 9 5 26 -12 25 -9
0 -8 -2 1 -6z"/>
<path d="M18020 13595 c-7 -8 -19 -15 -26 -15 -19 0 -17 -14 4 -33 16 -15 20
-15 40 -1 25 17 28 36 8 53 -10 9 -16 8 -26 -4z"/>
<path d="M1220 12901 c0 -25 6 -27 13 -6 4 8 2 17 -3 20 -6 4 -10 -3 -10 -14z"/>
<path d="M1770 12356 c0 -2 7 -7 16 -10 8 -3 12 -2 9 4 -6 10 -25 14 -25 6z"/>
<path d="M16875 6900 c-3 -5 -1 -11 5 -15 6 -4 7 -12 3 -18 -3 -7 3 -3 15 7
12 11 20 22 17 25 -9 9 -35 10 -40 1z m35 -6 c0 -8 -19 -13 -24 -6 -3 5 1 9 9
9 8 0 15 -2 15 -3z"/>
<path d="M16935 6709 c-5 -8 -4 -10 3 -5 16 10 15 -6 0 -24 -7 -8 -4 -7 7 2
14 13 16 21 8 29 -8 8 -13 7 -18 -2z"/>
<path d="M16899 6593 c-13 -16 -12 -17 4 -4 9 7 17 15 17 17 0 8 -8 3 -21 -13z"/>
<path d="M6455 5951 c-3 -5 -2 -12 3 -15 5 -3 9 1 9 9 0 17 -3 19 -12 6z"/>
<path d="M12606 5803 c-4 -4 -13 -8 -19 -8 -18 0 -20 -20 -3 -23 8 -2 20 6 26
17 11 21 9 27 -4 14z"/>
<path d="M8200 5690 c0 -5 5 -10 11 -10 5 0 7 5 4 10 -3 6 -8 10 -11 10 -2 0
-4 -4 -4 -10z"/>
</g>
</svg>
